<?xml version="1.0" standalone="no"?>
<!DOCTYPE svg PUBLIC "-//W3C//DTD SVG 20010904//EN"
 "http://www.w3.org/TR/2001/REC-SVG-20010904/DTD/svg10.dtd">
<svg version="1.0" xmlns="http://www.w3.org/2000/svg"
 width="512.000000pt" height="512.000000pt" viewBox="0 0 512.000000 512.000000"
 preserveAspectRatio="xMidYMid meet">

<g transform="translate(0.000000,512.000000) scale(0.100000,-0.100000)"
fill="#000000" stroke="none">
<path d="M2315 5109 c-800 -83 -1501 -518 -1927 -1196 -604 -961 -490 -2237
274 -3068 425 -462 951 -737 1583 -827 119 -17 512 -16 635 1 622 86 1148 360
1572 820 349 378 572 861 650 1406 17 118 17 512 0 630 -59 416 -191 769 -410
1099 -92 140 -185 254 -315 385 -399 404 -893 653 -1462 737 -123 18 -478 26
-600 13z m831 -1544 c28 -8 94 -42 147 -76 l98 -60 82 27 c45 15 111 40 146
55 35 16 68 29 72 29 22 0 -35 -96 -120 -200 -44 -54 -44 -55 -20 -58 13 -1
57 9 98 23 41 14 83 25 93 25 29 0 10 -27 -96 -138 -119 -125 -126 -136 -126
-197 0 -130 -61 -403 -125 -561 -89 -223 -293 -484 -493 -632 -228 -169 -527
-262 -844 -262 -249 0 -428 41 -658 152 -145 70 -145 71 41 81 187 11 347 60
501 153 l61 37 -91 32 c-158 57 -287 159 -337 268 -33 70 -25 77 84 77 l86 1
-80 42 c-95 50 -201 149 -237 222 -42 84 -85 239 -69 249 3 2 40 -7 81 -20 80
-25 110 -29 110 -15 0 5 -22 36 -50 68 -97 114 -138 237 -127 386 5 67 37 197
53 216 2 3 41 -31 87 -75 155 -150 273 -237 426 -314 144 -72 278 -110 506
-145 l41 -6 0 113 c1 90 5 125 23 173 56 155 188 282 345 331 58 18 231 17
292 -1z"/>
</g>
</svg>
